# xmcd
# 
# Track frame offsets:
#     150
#     27991
#     70100
#     102509
#     146570
#     165664
#     219463
# 
# Disc length: 3405
# 
# Revision: 0
# Processed by: cddbd v1.5.2PL0 Copyright (c) Steve Scherf et al.
# Submitted via: BonkEnc v1.0.8
# 
DISCID=610d4b07
DTITLE=Herbie Hancock - [1984.xx.xx] Herbie Hancock Trio In Concert - Lugano
DYEAR=1984
DGENRE=Contemporary Jazz
TTITLE0=The Eye Of The Hurricane
TTITLE1=First Trip
TTITLE2=Willow Weep For Me
TTITLE3=Dolphin Dance
TTITLE4=Ili's Treasure
TTITLE5=Princess
TTITLE6=Walking
EXTD=
EXTT0=
EXTT1=
EXTT2=
EXTT3=
EXTT4=
EXTT5=
EXTT6=
PLAYORDER=
